<?xml version="1.0" encoding="UTF-8" standalone="no"?>
<!DOCTYPE svg PUBLIC "-//W3C//DTD SVG 1.1//EN"
 "http://www.w3.org/Graphics/SVG/1.1/DTD/svg11.dtd">
<!-- Generated by graphviz version 9.0.0 (20230911.1827)
 -->
<!-- Title: G Pages: 1 -->
<svg width="5067pt" height="295pt"
 viewBox="0.00 0.00 5067.00 294.50" xmlns="http://www.w3.org/2000/svg" xmlns:xlink="http://www.w3.org/1999/xlink">
<g id="graph0" class="graph" transform="scale(1 1) rotate(0) translate(4 290.5)">
<title>G</title>
<polygon fill="white" stroke="none" points="-4,4 -4,-290.5 5063,-290.5 5063,4 -4,4"/>
<!-- node3 -->
<g id="node1" class="node">
<title>node3</title>
<polygon fill="grey" stroke="none" points="618.5,-260.5 618.5,-281.5 1130.5,-281.5 1130.5,-260.5 618.5,-260.5"/>
<text text-anchor="start" x="831.75" y="-267.2" font-family="DejaVu Sans" font-weight="bold" font-size="14.00">exemestane</text>
<g id="a_node1_0"><a xlink:href="https://drugcentral.org/drugcard/1122" xlink:title="&lt;TABLE&gt;">
<polygon fill="#eeeeee" stroke="none" points="618.5,-244.5 618.5,-260.5 1130.5,-260.5 1130.5,-244.5 618.5,-244.5"/>
<text text-anchor="start" x="792" y="-249" font-family="DejaVu Sans" font-size="10.00" fill="#6666ff">https://drugcentral.org/drugcard/1122</text>
</a>
</g>
<text text-anchor="start" x="620.12" y="-229.2" font-family="DejaVu Sans" font-size="14.00">schema:url</text>
<text text-anchor="start" x="693.5" y="-229.2" font-family="DejaVu Sans" font-size="14.00">&quot;https://www.ebi.ac.uk/chembl/compound/inspect/CHEMBL1200374&quot;</text>
<polygon fill="none" stroke="#666666" points="617.5,-222.5 617.5,-282.5 1131.5,-282.5 1131.5,-222.5 617.5,-222.5"/>
</g>
<!-- node4 -->
<g id="node2" class="node">
<title>node4</title>
<polygon fill="grey" stroke="none" points="1138.5,-130.25 1138.5,-151.25 1248.5,-151.25 1248.5,-130.25 1138.5,-130.25"/>
<text text-anchor="start" x="1176.25" y="-136.95" font-family="DejaVu Sans" font-weight="bold" font-size="14.00">Drug</text>
<g id="a_node2_1"><a xlink:href="https://schema.org/Drug" xlink:title="&lt;TABLE&gt;">
<polygon fill="#eeeeee" stroke="none" points="1138.5,-114.25 1138.5,-130.25 1248.5,-130.25 1248.5,-114.25 1138.5,-114.25"/>
<text text-anchor="start" x="1140.25" y="-118.75" font-family="DejaVu Sans" font-size="10.00" fill="#6666ff">https://schema.org/Drug</text>
</a>
</g>
<polygon fill="none" stroke="#666666" points="1137.5,-113.25 1137.5,-152.25 1249.5,-152.25 1249.5,-113.25 1137.5,-113.25"/>
</g>
<!-- node3&#45;&gt;node4 -->
<g id="edge1" class="edge">
<title>node3&#45;&gt;node4</title>
<path fill="none" stroke="BLACK" d="M976.24,-218.5C1020.57,-203.56 1072.93,-185.15 1119.5,-166.75 1124.39,-164.82 1129.44,-162.74 1134.48,-160.61"/>
<polygon fill="BLACK" stroke="BLACK" points="1135.59,-163.94 1143.4,-156.78 1132.83,-157.51 1135.59,-163.94"/>
<text text-anchor="start" x="1066.5" y="-188.2" font-family="Times New Roman,serif" font-size="14.00"> </text>
<text text-anchor="start" x="1070.25" y="-188.2" font-family="Times New Roman,serif" font-size="10.00" fill="#336633">rdf:type</text>
<text text-anchor="start" x="1101.75" y="-188.2" font-family="Times New Roman,serif" font-size="14.00"> </text>
</g>
<!-- node5 -->
<g id="node3" class="node">
<title>node5</title>
<polygon fill="grey" stroke="none" points="9,-140.75 9,-161.75 1102,-161.75 1102,-140.75 9,-140.75"/>
<text text-anchor="start" x="11" y="-147.45" font-family="DejaVu Sans" font-weight="bold" font-size="14.00">A Phase II Study of the Combination of Exemestane and Goserelin in Premenopausal Women With Metastatic Hormone Receptor Positive Breast Cancer</text>
<g id="a_node3_2"><a xlink:href="https://clinicaltrials.gov/ct2/show/NCT00010010" xlink:title="&lt;TABLE&gt;">
<polygon fill="#eeeeee" stroke="none" points="9,-124.75 9,-140.75 1102,-140.75 1102,-124.75 9,-124.75"/>
<text text-anchor="start" x="452.38" y="-129.25" font-family="DejaVu Sans" font-size="10.00" fill="#6666ff">https://clinicaltrials.gov/ct2/show/NCT00010010</text>
</a>
</g>
<text text-anchor="start" x="11" y="-109.45" font-family="DejaVu Sans" font-size="14.00">schema:MedicalCondition</text>
<text text-anchor="start" x="587" y="-109.45" font-family="DejaVu Sans" font-size="14.00">&quot;Breast Cancer&quot;</text>
<polygon fill="none" stroke="#666666" points="8,-102.75 8,-162.75 1103,-162.75 1103,-102.75 8,-102.75"/>
</g>
<!-- node3&#45;&gt;node5 -->
<g id="edge2" class="edge">
<title>node3&#45;&gt;node5</title>
<path fill="none" stroke="BLACK" d="M785.22,-218.54C744.86,-203.65 697.01,-185.99 655.46,-170.65"/>
<polygon fill="BLACK" stroke="BLACK" points="656.78,-167.4 646.18,-167.22 654.35,-173.97 656.78,-167.4"/>
<text text-anchor="start" x="734.5" y="-188.2" font-family="Times New Roman,serif" font-size="14.00"> </text>
<text text-anchor="start" x="738.25" y="-188.2" font-family="Times New Roman,serif" font-size="10.00" fill="#336633">schema:study</text>
<text text-anchor="start" x="793.75" y="-188.2" font-family="Times New Roman,serif" font-size="14.00"> </text>
</g>
<!-- node8 -->
<g id="node8" class="node">
<title>node8</title>
<polygon fill="grey" stroke="none" points="1942.5,-21 1942.5,-42 2088.5,-42 2088.5,-21 1942.5,-21"/>
<text text-anchor="start" x="1967.5" y="-27.7" font-family="DejaVu Sans" font-weight="bold" font-size="14.00">MedicalStudy</text>
<g id="a_node8_3"><a xlink:href="https://schema.org/MedicalStudy" xlink:title="&lt;TABLE&gt;">
<polygon fill="#eeeeee" stroke="none" points="1942.5,-5 1942.5,-21 2088.5,-21 2088.5,-5 1942.5,-5"/>
<text text-anchor="start" x="1944.25" y="-9.5" font-family="DejaVu Sans" font-size="10.00" fill="#6666ff">https://schema.org/MedicalStudy</text>
</a>
</g>
<polygon fill="none" stroke="#666666" points="1941.5,-4 1941.5,-43 2089.5,-43 2089.5,-4 1941.5,-4"/>
</g>
<!-- node5&#45;&gt;node8 -->
<g id="edge12" class="edge">
<title>node5&#45;&gt;node8</title>
<path fill="none" stroke="BLACK" d="M1004.47,-98.77C1328.95,-74.93 1740.87,-44.67 1922.41,-31.34"/>
<polygon fill="BLACK" stroke="BLACK" points="1922.54,-34.84 1932.26,-30.61 1922.03,-27.86 1922.54,-34.84"/>
<text text-anchor="start" x="1459.5" y="-68.45" font-family="Times New Roman,serif" font-size="14.00"> </text>
<text text-anchor="start" x="1463.25" y="-68.45" font-family="Times New Roman,serif" font-size="10.00" fill="#336633">rdf:type</text>
<text text-anchor="start" x="1494.75" y="-68.45" font-family="Times New Roman,serif" font-size="14.00"> </text>
</g>
<!-- node6 -->
<g id="node4" class="node">
<title>node6</title>
<polygon fill="grey" stroke="none" points="1916.5,-260.5 1916.5,-281.5 2398.5,-281.5 2398.5,-260.5 1916.5,-260.5"/>
<text text-anchor="start" x="2116.25" y="-267.2" font-family="DejaVu Sans" font-weight="bold" font-size="14.00">fluorouracil</text>
<g id="a_node4_4"><a xlink:href="https://drugcentral.org/drugcard/26" xlink:title="&lt;TABLE&gt;">
<polygon fill="#eeeeee" stroke="none" points="1916.5,-244.5 1916.5,-260.5 2398.5,-260.5 2398.5,-244.5 1916.5,-244.5"/>
<text text-anchor="start" x="2080.25" y="-249" font-family="DejaVu Sans" font-size="10.00" fill="#6666ff">https://drugcentral.org/drugcard/26</text>
</a>
</g>
<text text-anchor="start" x="1918.12" y="-229.2" font-family="DejaVu Sans" font-size="14.00">schema:url</text>
<text text-anchor="start" x="1991.5" y="-229.2" font-family="DejaVu Sans" font-size="14.00">&quot;https://www.ebi.ac.uk/chembl/compound/inspect/CHEMBL185&quot;</text>
<polygon fill="none" stroke="#666666" points="1915.5,-222.5 1915.5,-282.5 2399.5,-282.5 2399.5,-222.5 1915.5,-222.5"/>
</g>
<!-- node6&#45;&gt;node4 -->
<g id="edge6" class="edge">
<title>node6&#45;&gt;node4</title>
<path fill="none" stroke="BLACK" d="M1907.61,-236.93C1687.16,-222.4 1383.31,-197.79 1266.5,-166.75 1260.21,-165.08 1253.79,-162.92 1247.48,-160.5"/>
<polygon fill="BLACK" stroke="BLACK" points="1249.02,-157.35 1238.44,-156.81 1246.37,-163.83 1249.02,-157.35"/>
<text text-anchor="start" x="1476.5" y="-188.2" font-family="Times New Roman,serif" font-size="14.00"> </text>
<text text-anchor="start" x="1480.25" y="-188.2" font-family="Times New Roman,serif" font-size="10.00" fill="#336633">rdf:type</text>
<text text-anchor="start" x="1511.75" y="-188.2" font-family="Times New Roman,serif" font-size="14.00"> </text>
</g>
<!-- node1 -->
<g id="node5" class="node">
<title>node1</title>
<polygon fill="grey" stroke="none" points="2248,-140.75 2248,-161.75 3259,-161.75 3259,-140.75 2248,-140.75"/>
<text text-anchor="start" x="2249.88" y="-147.45" font-family="DejaVu Sans" font-weight="bold" font-size="14.00">Study Of Gemcitabine, Leukovorin, And Fluorouracil Used To Treat Locally Advanced And Metastatic Pancreatic And Biliary Adenocarcinomas</text>
<g id="a_node5_5"><a xlink:href="https://clinicaltrials.gov/ct2/show/NCT00010088" xlink:title="&lt;TABLE&gt;">
<polygon fill="#eeeeee" stroke="none" points="2248,-124.75 2248,-140.75 3259,-140.75 3259,-124.75 2248,-124.75"/>
<text text-anchor="start" x="2650.38" y="-129.25" font-family="DejaVu Sans" font-size="10.00" fill="#6666ff">https://clinicaltrials.gov/ct2/show/NCT00010088</text>
</a>
</g>
<text text-anchor="start" x="2250" y="-109.45" font-family="DejaVu Sans" font-size="14.00">schema:MedicalCondition</text>
<text text-anchor="start" x="2736" y="-109.45" font-family="DejaVu Sans" font-size="14.00">&quot;Extrahepatic Bile Duct Cancer&quot;</text>
<polygon fill="none" stroke="#666666" points="2247,-102.75 2247,-162.75 3260,-162.75 3260,-102.75 2247,-102.75"/>
</g>
<!-- node6&#45;&gt;node1 -->
<g id="edge3" class="edge">
<title>node6&#45;&gt;node1</title>
<path fill="none" stroke="BLACK" d="M2324.31,-218.54C2402.51,-203.09 2495.76,-184.67 2575.34,-168.95"/>
<polygon fill="BLACK" stroke="BLACK" points="2575.85,-172.41 2584.99,-167.04 2574.5,-165.55 2575.85,-172.41"/>
<text text-anchor="start" x="2491.5" y="-188.2" font-family="Times New Roman,serif" font-size="14.00"> </text>
<text text-anchor="start" x="2495.25" y="-188.2" font-family="Times New Roman,serif" font-size="10.00" fill="#336633">schema:study</text>
<text text-anchor="start" x="2550.75" y="-188.2" font-family="Times New Roman,serif" font-size="14.00"> </text>
</g>
<!-- node7 -->
<g id="node6" class="node">
<title>node7</title>
<polygon fill="grey" stroke="none" points="3295,-130.25 3295,-151.25 3526,-151.25 3526,-130.25 3295,-130.25"/>
<text text-anchor="start" x="3378.25" y="-136.95" font-family="DejaVu Sans" font-weight="bold" font-size="14.00">D005472</text>
<g id="a_node6_6"><a xlink:href="https://www.ncbi.nlm.nih.gov/mesh/?term=D005472" xlink:title="&lt;TABLE&gt;">
<polygon fill="#eeeeee" stroke="none" points="3295,-114.25 3295,-130.25 3526,-130.25 3526,-114.25 3295,-114.25"/>
<text text-anchor="start" x="3296.88" y="-118.75" font-family="DejaVu Sans" font-size="10.00" fill="#6666ff">https://www.ncbi.nlm.nih.gov/mesh/?term=D005472</text>
</a>
</g>
<polygon fill="none" stroke="#666666" points="3294,-113.25 3294,-152.25 3527,-152.25 3527,-113.25 3294,-113.25"/>
</g>
<!-- node6&#45;&gt;node7 -->
<g id="edge4" class="edge">
<title>node6&#45;&gt;node7</title>
<path fill="none" stroke="BLACK" d="M2407.46,-244.58C2635.37,-235.43 2980.76,-214.44 3277.5,-166.75 3290.84,-164.61 3304.82,-161.79 3318.48,-158.7"/>
<polygon fill="BLACK" stroke="BLACK" points="3318.93,-162.19 3327.88,-156.52 3317.35,-155.37 3318.93,-162.19"/>
<text text-anchor="start" x="3126.5" y="-188.2" font-family="Times New Roman,serif" font-size="14.00"> </text>
<text text-anchor="start" x="3130.25" y="-188.2" font-family="Times New Roman,serif" font-size="10.00" fill="#336633">schema:url</text>
<text text-anchor="start" x="3173" y="-188.2" font-family="Times New Roman,serif" font-size="14.00"> </text>
</g>
<!-- node0 -->
<g id="node11" class="node">
<title>node0</title>
<polygon fill="grey" stroke="none" points="1285,-140.75 1285,-161.75 2212,-161.75 2212,-140.75 1285,-140.75"/>
<text text-anchor="start" x="1286.88" y="-147.45" font-family="DejaVu Sans" font-weight="bold" font-size="14.00">Study Of The Survival Without Degradation To The Quality Of Life During Chemotherapy For Metastatic Breast Cancer In Women</text>
<g id="a_node11_7"><a xlink:href="https://clinicaltrials.gov/ct2/show/NCT00010075" xlink:title="&lt;TABLE&gt;">
<polygon fill="#eeeeee" stroke="none" points="1285,-124.75 1285,-140.75 2212,-140.75 2212,-124.75 1285,-124.75"/>
<text text-anchor="start" x="1645.38" y="-129.25" font-family="DejaVu Sans" font-size="10.00" fill="#6666ff">https://clinicaltrials.gov/ct2/show/NCT00010075</text>
</a>
</g>
<text text-anchor="start" x="1287" y="-109.45" font-family="DejaVu Sans" font-size="14.00">schema:MedicalCondition</text>
<text text-anchor="start" x="1780" y="-109.45" font-family="DejaVu Sans" font-size="14.00">&quot;Breast Cancer&quot;</text>
<polygon fill="none" stroke="#666666" points="1284,-102.75 1284,-162.75 2213,-162.75 2213,-102.75 1284,-102.75"/>
</g>
<!-- node6&#45;&gt;node0 -->
<g id="edge13" class="edge">
<title>node6&#45;&gt;node0</title>
<path fill="none" stroke="BLACK" d="M2043.03,-218.54C1990.41,-203.39 1927.85,-185.39 1873.96,-169.87"/>
<polygon fill="BLACK" stroke="BLACK" points="1874.98,-166.52 1864.4,-167.12 1873.04,-173.25 1874.98,-166.52"/>
<text text-anchor="start" x="1977.5" y="-188.2" font-family="Times New Roman,serif" font-size="14.00"> </text>
<text text-anchor="start" x="1981.25" y="-188.2" font-family="Times New Roman,serif" font-size="10.00" fill="#336633">schema:study</text>
<text text-anchor="start" x="2036.75" y="-188.2" font-family="Times New Roman,serif" font-size="14.00"> </text>
</g>
<!-- node1&#45;&gt;node8 -->
<g id="edge10" class="edge">
<title>node1&#45;&gt;node8</title>
<path fill="none" stroke="BLACK" d="M2526.56,-98.77C2385.96,-78.34 2212.88,-53.18 2108.52,-38.02"/>
<polygon fill="BLACK" stroke="BLACK" points="2109.29,-34.59 2098.89,-36.62 2108.28,-41.52 2109.29,-34.59"/>
<text text-anchor="start" x="2384.5" y="-68.45" font-family="Times New Roman,serif" font-size="14.00"> </text>
<text text-anchor="start" x="2388.25" y="-68.45" font-family="Times New Roman,serif" font-size="10.00" fill="#336633">rdf:type</text>
<text text-anchor="start" x="2419.75" y="-68.45" font-family="Times New Roman,serif" font-size="14.00"> </text>
</g>
<!-- node2 -->
<g id="node7" class="node">
<title>node2</title>
<polygon fill="grey" stroke="none" points="3562,-140.75 3562,-161.75 4767,-161.75 4767,-140.75 3562,-140.75"/>
<text text-anchor="start" x="3563.75" y="-147.45" font-family="DejaVu Sans" font-weight="bold" font-size="14.00">A Phase I Study of Oral Fluoropyrimidine Capecitabine (Xeloda Roche) Combined With Intravenous Cisplatin in Patients With Advanced Cancer of the Digestive System</text>
<g id="a_node7_8"><a xlink:href="https://clinicaltrials.gov/ct2/show/NCT00010023" xlink:title="&lt;TABLE&gt;">
<polygon fill="#eeeeee" stroke="none" points="3562,-124.75 3562,-140.75 4767,-140.75 4767,-124.75 3562,-124.75"/>
<text text-anchor="start" x="4061.38" y="-129.25" font-family="DejaVu Sans" font-size="10.00" fill="#6666ff">https://clinicaltrials.gov/ct2/show/NCT00010023</text>
</a>
</g>
<text text-anchor="start" x="3564" y="-109.45" font-family="DejaVu Sans" font-size="14.00">schema:MedicalCondition</text>
<text text-anchor="start" x="4218" y="-109.45" font-family="DejaVu Sans" font-size="14.00">&quot;Cancer&quot;</text>
<polygon fill="none" stroke="#666666" points="3561,-102.75 3561,-162.75 4768,-162.75 4768,-102.75 3561,-102.75"/>
</g>
<!-- node2&#45;&gt;node8 -->
<g id="edge5" class="edge">
<title>node2&#45;&gt;node8</title>
<path fill="none" stroke="BLACK" d="M3553.4,-99.2C3550.43,-99.05 3547.46,-98.9 3544.5,-98.75 3000.34,-71.06 2347.12,-40.1 2108.53,-28.87"/>
<polygon fill="BLACK" stroke="BLACK" points="2108.8,-25.38 2098.65,-28.4 2108.48,-32.37 2108.8,-25.38"/>
<text text-anchor="start" x="3167.5" y="-68.45" font-family="Times New Roman,serif" font-size="14.00"> </text>
<text text-anchor="start" x="3171.25" y="-68.45" font-family="Times New Roman,serif" font-size="10.00" fill="#336633">rdf:type</text>
<text text-anchor="start" x="3202.75" y="-68.45" font-family="Times New Roman,serif" font-size="14.00"> </text>
</g>
<!-- node9 -->
<g id="node9" class="node">
<title>node9</title>
<polygon fill="grey" stroke="none" points="3920,-260.5 3920,-281.5 4409,-281.5 4409,-260.5 3920,-260.5"/>
<text text-anchor="start" x="4119.5" y="-267.2" font-family="DejaVu Sans" font-weight="bold" font-size="14.00">capecitabine</text>
<g id="a_node9_9"><a xlink:href="https://drugcentral.org/drugcard/480" xlink:title="&lt;TABLE&gt;">
<polygon fill="#eeeeee" stroke="none" points="3920,-244.5 3920,-260.5 4409,-260.5 4409,-244.5 3920,-244.5"/>
<text text-anchor="start" x="4084.62" y="-249" font-family="DejaVu Sans" font-size="10.00" fill="#6666ff">https://drugcentral.org/drugcard/480</text>
</a>
</g>
<text text-anchor="start" x="3921.62" y="-229.2" font-family="DejaVu Sans" font-size="14.00">schema:url</text>
<text text-anchor="start" x="3994.75" y="-229.2" font-family="DejaVu Sans" font-size="14.00">&quot;https://www.ebi.ac.uk/chembl/compound/inspect/CHEMBL1773&quot;</text>
<polygon fill="none" stroke="#666666" points="3919,-222.5 3919,-282.5 4410,-282.5 4410,-222.5 3919,-222.5"/>
</g>
<!-- node9&#45;&gt;node4 -->
<g id="edge11" class="edge">
<title>node9&#45;&gt;node4</title>
<path fill="none" stroke="BLACK" d="M3911.15,-230.24C3712.54,-214.55 3429.13,-194.34 3180.5,-184.75 3074.24,-180.65 1370.34,-189.64 1266.5,-166.75 1259.64,-165.24 1252.64,-163.04 1245.83,-160.48"/>
<polygon fill="BLACK" stroke="BLACK" points="1247.3,-157.3 1236.72,-156.78 1244.67,-163.78 1247.3,-157.3"/>
<text text-anchor="start" x="3477.5" y="-188.2" font-family="Times New Roman,serif" font-size="14.00"> </text>
<text text-anchor="start" x="3481.25" y="-188.2" font-family="Times New Roman,serif" font-size="10.00" fill="#336633">rdf:type</text>
<text text-anchor="start" x="3512.75" y="-188.2" font-family="Times New Roman,serif" font-size="14.00"> </text>
</g>
<!-- node9&#45;&gt;node2 -->
<g id="edge7" class="edge">
<title>node9&#45;&gt;node2</title>
<path fill="none" stroke="BLACK" d="M4164.5,-218.7C4164.5,-205.94 4164.5,-191.13 4164.5,-177.49"/>
<polygon fill="BLACK" stroke="BLACK" points="4168,-177.89 4164.5,-167.89 4161,-177.89 4168,-177.89"/>
<text text-anchor="start" x="4164.5" y="-188.2" font-family="Times New Roman,serif" font-size="14.00"> </text>
<text text-anchor="start" x="4168.25" y="-188.2" font-family="Times New Roman,serif" font-size="10.00" fill="#336633">schema:study</text>
<text text-anchor="start" x="4223.75" y="-188.2" font-family="Times New Roman,serif" font-size="14.00"> </text>
</g>
<!-- node10 -->
<g id="node10" class="node">
<title>node10</title>
<polygon fill="grey" stroke="none" points="4803,-130.25 4803,-151.25 5050,-151.25 5050,-130.25 4803,-130.25"/>
<text text-anchor="start" x="4880.75" y="-136.95" font-family="DejaVu Sans" font-weight="bold" font-size="14.00">D000069287</text>
<g id="a_node10_10"><a xlink:href="https://www.ncbi.nlm.nih.gov/mesh/?term=D000069287" xlink:title="&lt;TABLE&gt;">
<polygon fill="#eeeeee" stroke="none" points="4803,-114.25 4803,-130.25 5050,-130.25 5050,-114.25 4803,-114.25"/>
<text text-anchor="start" x="4805" y="-118.75" font-family="DejaVu Sans" font-size="10.00" fill="#6666ff">https://www.ncbi.nlm.nih.gov/mesh/?term=D000069287</text>
</a>
</g>
<polygon fill="none" stroke="#666666" points="4802,-113.25 4802,-152.25 5051,-152.25 5051,-113.25 4802,-113.25"/>
</g>
<!-- node9&#45;&gt;node10 -->
<g id="edge8" class="edge">
<title>node9&#45;&gt;node10</title>
<path fill="none" stroke="BLACK" d="M4417.65,-222.44C4530.62,-208.06 4665.13,-189 4785.5,-166.75 4798.34,-164.38 4811.78,-161.61 4825.04,-158.7"/>
<polygon fill="BLACK" stroke="BLACK" points="4825.65,-162.15 4834.65,-156.56 4824.13,-155.32 4825.65,-162.15"/>
<text text-anchor="start" x="4666.5" y="-188.2" font-family="Times New Roman,serif" font-size="14.00"> </text>
<text text-anchor="start" x="4670.25" y="-188.2" font-family="Times New Roman,serif" font-size="10.00" fill="#336633">schema:url</text>
<text text-anchor="start" x="4713" y="-188.2" font-family="Times New Roman,serif" font-size="14.00"> </text>
</g>
<!-- node0&#45;&gt;node8 -->
<g id="edge9" class="edge">
<title>node0&#45;&gt;node8</title>
<path fill="none" stroke="BLACK" d="M1830.42,-98.84C1868.51,-83.54 1913.22,-65.58 1949.15,-51.15"/>
<polygon fill="BLACK" stroke="BLACK" points="1950.14,-54.52 1958.12,-47.55 1947.53,-48.03 1950.14,-54.52"/>
<text text-anchor="start" x="1914.5" y="-68.45" font-family="Times New Roman,serif" font-size="14.00"> </text>
<text text-anchor="start" x="1918.25" y="-68.45" font-family="Times New Roman,serif" font-size="10.00" fill="#336633">rdf:type</text>
<text text-anchor="start" x="1949.75" y="-68.45" font-family="Times New Roman,serif" font-size="14.00"> </text>
</g>
</g>
</svg>
