<?xml version="1.0" encoding="UTF-8" standalone="no"?>
<!DOCTYPE svg PUBLIC "-//W3C//DTD SVG 1.1//EN"
 "http://www.w3.org/Graphics/SVG/1.1/DTD/svg11.dtd">
<!-- Generated by graphviz version 9.0.0 (20230911.1827)
 -->
<!-- Title: G Pages: 1 -->
<svg width="5334pt" height="295pt"
 viewBox="0.00 0.00 5334.00 294.50" xmlns="http://www.w3.org/2000/svg" xmlns:xlink="http://www.w3.org/1999/xlink">
<g id="graph0" class="graph" transform="scale(1 1) rotate(0) translate(4 290.5)">
<title>G</title>
<polygon fill="white" stroke="none" points="-4,4 -4,-290.5 5330,-290.5 5330,4 -4,4"/>
<!-- node0 -->
<g id="node1" class="node">
<title>node0</title>
<polygon fill="grey" stroke="none" points="972,-140.75 972,-161.75 1983,-161.75 1983,-140.75 972,-140.75"/>
<text text-anchor="start" x="973.88" y="-147.45" font-family="DejaVu Sans" font-weight="bold" font-size="14.00">Study Of Gemcitabine, Leukovorin, And Fluorouracil Used To Treat Locally Advanced And Metastatic Pancreatic And Biliary Adenocarcinomas</text>
<g id="a_node1_0"><a xlink:href="https://clinicaltrials.gov/ct2/show/NCT00010088" xlink:title="&lt;TABLE&gt;">
<polygon fill="#eeeeee" stroke="none" points="972,-124.75 972,-140.75 1983,-140.75 1983,-124.75 972,-124.75"/>
<text text-anchor="start" x="1374.38" y="-129.25" font-family="DejaVu Sans" font-size="10.00" fill="#6666ff">https://clinicaltrials.gov/ct2/show/NCT00010088</text>
</a>
</g>
<text text-anchor="start" x="974" y="-109.45" font-family="DejaVu Sans" font-size="14.00">schema:MedicalCondition</text>
<text text-anchor="start" x="1460" y="-109.45" font-family="DejaVu Sans" font-size="14.00">&quot;Extrahepatic Bile Duct Cancer&quot;</text>
<polygon fill="none" stroke="#666666" points="971,-102.75 971,-162.75 1984,-162.75 1984,-102.75 971,-102.75"/>
</g>
<!-- node1 -->
<g id="node2" class="node">
<title>node1</title>
<polygon fill="grey" stroke="none" points="2081.5,-21 2081.5,-42 2227.5,-42 2227.5,-21 2081.5,-21"/>
<text text-anchor="start" x="2106.5" y="-27.7" font-family="DejaVu Sans" font-weight="bold" font-size="14.00">MedicalStudy</text>
<g id="a_node2_1"><a xlink:href="https://schema.org/MedicalStudy" xlink:title="&lt;TABLE&gt;">
<polygon fill="#eeeeee" stroke="none" points="2081.5,-5 2081.5,-21 2227.5,-21 2227.5,-5 2081.5,-5"/>
<text text-anchor="start" x="2083.25" y="-9.5" font-family="DejaVu Sans" font-size="10.00" fill="#6666ff">https://schema.org/MedicalStudy</text>
</a>
</g>
<polygon fill="none" stroke="#666666" points="2080.5,-4 2080.5,-43 2228.5,-43 2228.5,-4 2080.5,-4"/>
</g>
<!-- node0&#45;&gt;node1 -->
<g id="edge1" class="edge">
<title>node0&#45;&gt;node1</title>
<path fill="none" stroke="BLACK" d="M1685.68,-98.77C1811.28,-78.87 1965.13,-54.5 2061.51,-39.23"/>
<polygon fill="BLACK" stroke="BLACK" points="2061.86,-42.72 2071.19,-37.7 2060.76,-35.81 2061.86,-42.72"/>
<text text-anchor="start" x="1897.5" y="-68.45" font-family="Times New Roman,serif" font-size="14.00"> </text>
<text text-anchor="start" x="1901.25" y="-68.45" font-family="Times New Roman,serif" font-size="10.00" fill="#336633">rdf:type</text>
<text text-anchor="start" x="1932.75" y="-68.45" font-family="Times New Roman,serif" font-size="14.00"> </text>
</g>
<!-- node2 -->
<g id="node3" class="node">
<title>node2</title>
<polygon fill="grey" stroke="none" points="3593,-250 3593,-271 3762,-271 3762,-250 3593,-250"/>
<text text-anchor="start" x="3647.12" y="-256.7" font-family="DejaVu Sans" font-weight="bold" font-size="14.00">cisplatin</text>
<g id="a_node3_2"><a xlink:href="https://drugcentral.org/drugcard/4392" xlink:title="&lt;TABLE&gt;">
<polygon fill="#eeeeee" stroke="none" points="3593,-234 3593,-250 3762,-250 3762,-234 3593,-234"/>
<text text-anchor="start" x="3595" y="-238.5" font-family="DejaVu Sans" font-size="10.00" fill="#6666ff">https://drugcentral.org/drugcard/4392</text>
</a>
</g>
<polygon fill="none" stroke="#666666" points="3592,-233 3592,-272 3763,-272 3763,-233 3592,-233"/>
</g>
<!-- node3 -->
<g id="node4" class="node">
<title>node3</title>
<polygon fill="grey" stroke="none" points="3415.5,-130.25 3415.5,-151.25 3525.5,-151.25 3525.5,-130.25 3415.5,-130.25"/>
<text text-anchor="start" x="3453.25" y="-136.95" font-family="DejaVu Sans" font-weight="bold" font-size="14.00">Drug</text>
<g id="a_node4_3"><a xlink:href="https://schema.org/Drug" xlink:title="&lt;TABLE&gt;">
<polygon fill="#eeeeee" stroke="none" points="3415.5,-114.25 3415.5,-130.25 3525.5,-130.25 3525.5,-114.25 3415.5,-114.25"/>
<text text-anchor="start" x="3417.25" y="-118.75" font-family="DejaVu Sans" font-size="10.00" fill="#6666ff">https://schema.org/Drug</text>
</a>
</g>
<polygon fill="none" stroke="#666666" points="3414.5,-113.25 3414.5,-152.25 3526.5,-152.25 3526.5,-113.25 3414.5,-113.25"/>
</g>
<!-- node2&#45;&gt;node3 -->
<g id="edge2" class="edge">
<title>node2&#45;&gt;node3</title>
<path fill="none" stroke="BLACK" d="M3638.08,-229.07C3604.41,-209.92 3555.83,-182.29 3519.63,-161.7"/>
<polygon fill="BLACK" stroke="BLACK" points="3521.51,-158.74 3511.09,-156.84 3518.05,-164.83 3521.51,-158.74"/>
<text text-anchor="start" x="3585.5" y="-188.2" font-family="Times New Roman,serif" font-size="14.00"> </text>
<text text-anchor="start" x="3589.25" y="-188.2" font-family="Times New Roman,serif" font-size="10.00" fill="#336633">rdf:type</text>
<text text-anchor="start" x="3620.75" y="-188.2" font-family="Times New Roman,serif" font-size="14.00"> </text>
</g>
<!-- node12 -->
<g id="node12" class="node">
<title>node12</title>
<polygon fill="grey" stroke="none" points="3562,-130.25 3562,-151.25 3793,-151.25 3793,-130.25 3562,-130.25"/>
<text text-anchor="start" x="3645.25" y="-136.95" font-family="DejaVu Sans" font-weight="bold" font-size="14.00">D002945</text>
<g id="a_node12_4"><a xlink:href="https://www.ncbi.nlm.nih.gov/mesh/?term=D002945" xlink:title="&lt;TABLE&gt;">
<polygon fill="#eeeeee" stroke="none" points="3562,-114.25 3562,-130.25 3793,-130.25 3793,-114.25 3562,-114.25"/>
<text text-anchor="start" x="3563.88" y="-118.75" font-family="DejaVu Sans" font-size="10.00" fill="#6666ff">https://www.ncbi.nlm.nih.gov/mesh/?term=D002945</text>
</a>
</g>
<polygon fill="none" stroke="#666666" points="3561,-113.25 3561,-152.25 3794,-152.25 3794,-113.25 3561,-113.25"/>
</g>
<!-- node2&#45;&gt;node12 -->
<g id="edge9" class="edge">
<title>node2&#45;&gt;node12</title>
<path fill="none" stroke="BLACK" d="M3677.5,-229.07C3677.5,-211.64 3677.5,-187.18 3677.5,-167.4"/>
<polygon fill="BLACK" stroke="BLACK" points="3681,-167.61 3677.5,-157.61 3674,-167.61 3681,-167.61"/>
<text text-anchor="start" x="3677.5" y="-188.2" font-family="Times New Roman,serif" font-size="14.00"> </text>
<text text-anchor="start" x="3681.25" y="-188.2" font-family="Times New Roman,serif" font-size="10.00" fill="#336633">schema:url</text>
<text text-anchor="start" x="3724" y="-188.2" font-family="Times New Roman,serif" font-size="14.00"> </text>
</g>
<!-- node7 -->
<g id="node13" class="node">
<title>node7</title>
<polygon fill="grey" stroke="none" points="3829,-140.75 3829,-161.75 5034,-161.75 5034,-140.75 3829,-140.75"/>
<text text-anchor="start" x="3830.75" y="-147.45" font-family="DejaVu Sans" font-weight="bold" font-size="14.00">A Phase I Study of Oral Fluoropyrimidine Capecitabine (Xeloda Roche) Combined With Intravenous Cisplatin in Patients With Advanced Cancer of the Digestive System</text>
<g id="a_node13_5"><a xlink:href="https://clinicaltrials.gov/ct2/show/NCT00010023" xlink:title="&lt;TABLE&gt;">
<polygon fill="#eeeeee" stroke="none" points="3829,-124.75 3829,-140.75 5034,-140.75 5034,-124.75 3829,-124.75"/>
<text text-anchor="start" x="4328.38" y="-129.25" font-family="DejaVu Sans" font-size="10.00" fill="#6666ff">https://clinicaltrials.gov/ct2/show/NCT00010023</text>
</a>
</g>
<text text-anchor="start" x="3831" y="-109.45" font-family="DejaVu Sans" font-size="14.00">schema:MedicalCondition</text>
<text text-anchor="start" x="4485" y="-109.45" font-family="DejaVu Sans" font-size="14.00">&quot;Cancer&quot;</text>
<polygon fill="none" stroke="#666666" points="3828,-102.75 3828,-162.75 5035,-162.75 5035,-102.75 3828,-102.75"/>
</g>
<!-- node2&#45;&gt;node7 -->
<g id="edge16" class="edge">
<title>node2&#45;&gt;node7</title>
<path fill="none" stroke="BLACK" d="M3770.71,-236.94C3879.48,-219.96 4063.06,-191.29 4209.15,-168.47"/>
<polygon fill="BLACK" stroke="BLACK" points="4209.66,-171.94 4219,-166.94 4208.58,-165.02 4209.66,-171.94"/>
<text text-anchor="start" x="4099.5" y="-188.2" font-family="Times New Roman,serif" font-size="14.00"> </text>
<text text-anchor="start" x="4103.25" y="-188.2" font-family="Times New Roman,serif" font-size="10.00" fill="#336633">schema:study</text>
<text text-anchor="start" x="4158.75" y="-188.2" font-family="Times New Roman,serif" font-size="14.00"> </text>
</g>
<!-- node5 -->
<g id="node5" class="node">
<title>node5</title>
<polygon fill="grey" stroke="none" points="2836.5,-260.5 2836.5,-281.5 3348.5,-281.5 3348.5,-260.5 2836.5,-260.5"/>
<text text-anchor="start" x="3049.75" y="-267.2" font-family="DejaVu Sans" font-weight="bold" font-size="14.00">exemestane</text>
<g id="a_node5_6"><a xlink:href="https://drugcentral.org/drugcard/1122" xlink:title="&lt;TABLE&gt;">
<polygon fill="#eeeeee" stroke="none" points="2836.5,-244.5 2836.5,-260.5 3348.5,-260.5 3348.5,-244.5 2836.5,-244.5"/>
<text text-anchor="start" x="3010" y="-249" font-family="DejaVu Sans" font-size="10.00" fill="#6666ff">https://drugcentral.org/drugcard/1122</text>
</a>
</g>
<text text-anchor="start" x="2838.12" y="-229.2" font-family="DejaVu Sans" font-size="14.00">schema:url</text>
<text text-anchor="start" x="2911.5" y="-229.2" font-family="DejaVu Sans" font-size="14.00">&quot;https://www.ebi.ac.uk/chembl/compound/inspect/CHEMBL1200374&quot;</text>
<polygon fill="none" stroke="#666666" points="2835.5,-222.5 2835.5,-282.5 3349.5,-282.5 3349.5,-222.5 2835.5,-222.5"/>
</g>
<!-- node5&#45;&gt;node3 -->
<g id="edge15" class="edge">
<title>node5&#45;&gt;node3</title>
<path fill="none" stroke="BLACK" d="M3228.28,-218.56C3281.61,-204.38 3342.99,-186.51 3397.5,-166.75 3402.76,-164.84 3408.17,-162.72 3413.55,-160.5"/>
<polygon fill="BLACK" stroke="BLACK" points="3414.59,-163.86 3422.42,-156.72 3411.85,-157.42 3414.59,-163.86"/>
<text text-anchor="start" x="3339.5" y="-188.2" font-family="Times New Roman,serif" font-size="14.00"> </text>
<text text-anchor="start" x="3343.25" y="-188.2" font-family="Times New Roman,serif" font-size="10.00" fill="#336633">rdf:type</text>
<text text-anchor="start" x="3374.75" y="-188.2" font-family="Times New Roman,serif" font-size="14.00"> </text>
</g>
<!-- node6 -->
<g id="node6" class="node">
<title>node6</title>
<polygon fill="grey" stroke="none" points="2286,-140.75 2286,-161.75 3379,-161.75 3379,-140.75 2286,-140.75"/>
<text text-anchor="start" x="2288" y="-147.45" font-family="DejaVu Sans" font-weight="bold" font-size="14.00">A Phase II Study of the Combination of Exemestane and Goserelin in Premenopausal Women With Metastatic Hormone Receptor Positive Breast Cancer</text>
<g id="a_node6_7"><a xlink:href="https://clinicaltrials.gov/ct2/show/NCT00010010" xlink:title="&lt;TABLE&gt;">
<polygon fill="#eeeeee" stroke="none" points="2286,-124.75 2286,-140.75 3379,-140.75 3379,-124.75 2286,-124.75"/>
<text text-anchor="start" x="2729.38" y="-129.25" font-family="DejaVu Sans" font-size="10.00" fill="#6666ff">https://clinicaltrials.gov/ct2/show/NCT00010010</text>
</a>
</g>
<text text-anchor="start" x="2288" y="-109.45" font-family="DejaVu Sans" font-size="14.00">schema:MedicalCondition</text>
<text text-anchor="start" x="2864" y="-109.45" font-family="DejaVu Sans" font-size="14.00">&quot;Breast Cancer&quot;</text>
<polygon fill="none" stroke="#666666" points="2285,-102.75 2285,-162.75 3380,-162.75 3380,-102.75 2285,-102.75"/>
</g>
<!-- node5&#45;&gt;node6 -->
<g id="edge3" class="edge">
<title>node5&#45;&gt;node6</title>
<path fill="none" stroke="BLACK" d="M3019.73,-218.54C2987.33,-203.87 2949,-186.51 2915.49,-171.33"/>
<polygon fill="BLACK" stroke="BLACK" points="2917.18,-168.26 2906.63,-167.32 2914.3,-174.64 2917.18,-168.26"/>
<text text-anchor="start" x="2977.5" y="-188.2" font-family="Times New Roman,serif" font-size="14.00"> </text>
<text text-anchor="start" x="2981.25" y="-188.2" font-family="Times New Roman,serif" font-size="10.00" fill="#336633">schema:study</text>
<text text-anchor="start" x="3036.75" y="-188.2" font-family="Times New Roman,serif" font-size="14.00"> </text>
</g>
<!-- node6&#45;&gt;node1 -->
<g id="edge5" class="edge">
<title>node6&#45;&gt;node1</title>
<path fill="none" stroke="BLACK" d="M2624.01,-98.77C2498.23,-78.87 2344.15,-54.5 2247.63,-39.23"/>
<polygon fill="BLACK" stroke="BLACK" points="2248.36,-35.8 2237.94,-37.7 2247.27,-42.72 2248.36,-35.8"/>
<text text-anchor="start" x="2493.5" y="-68.45" font-family="Times New Roman,serif" font-size="14.00"> </text>
<text text-anchor="start" x="2497.25" y="-68.45" font-family="Times New Roman,serif" font-size="10.00" fill="#336633">rdf:type</text>
<text text-anchor="start" x="2528.75" y="-68.45" font-family="Times New Roman,serif" font-size="14.00"> </text>
</g>
<!-- node4 -->
<g id="node7" class="node">
<title>node4</title>
<polygon fill="grey" stroke="none" points="1565.5,-260.5 1565.5,-281.5 2047.5,-281.5 2047.5,-260.5 1565.5,-260.5"/>
<text text-anchor="start" x="1765.25" y="-267.2" font-family="DejaVu Sans" font-weight="bold" font-size="14.00">fluorouracil</text>
<g id="a_node7_8"><a xlink:href="https://drugcentral.org/drugcard/26" xlink:title="&lt;TABLE&gt;">
<polygon fill="#eeeeee" stroke="none" points="1565.5,-244.5 1565.5,-260.5 2047.5,-260.5 2047.5,-244.5 1565.5,-244.5"/>
<text text-anchor="start" x="1729.25" y="-249" font-family="DejaVu Sans" font-size="10.00" fill="#6666ff">https://drugcentral.org/drugcard/26</text>
</a>
</g>
<text text-anchor="start" x="1567.12" y="-229.2" font-family="DejaVu Sans" font-size="14.00">schema:url</text>
<text text-anchor="start" x="1640.5" y="-229.2" font-family="DejaVu Sans" font-size="14.00">&quot;https://www.ebi.ac.uk/chembl/compound/inspect/CHEMBL185&quot;</text>
<polygon fill="none" stroke="#666666" points="1564.5,-222.5 1564.5,-282.5 2048.5,-282.5 2048.5,-222.5 1564.5,-222.5"/>
</g>
<!-- node4&#45;&gt;node0 -->
<g id="edge7" class="edge">
<title>node4&#45;&gt;node0</title>
<path fill="none" stroke="BLACK" d="M1714.42,-218.54C1672.71,-203.62 1623.24,-185.91 1580.32,-170.55"/>
<polygon fill="BLACK" stroke="BLACK" points="1581.58,-167.28 1570.99,-167.21 1579.22,-173.87 1581.58,-167.28"/>
<text text-anchor="start" x="1662.5" y="-188.2" font-family="Times New Roman,serif" font-size="14.00"> </text>
<text text-anchor="start" x="1666.25" y="-188.2" font-family="Times New Roman,serif" font-size="10.00" fill="#336633">schema:study</text>
<text text-anchor="start" x="1721.75" y="-188.2" font-family="Times New Roman,serif" font-size="14.00"> </text>
</g>
<!-- node4&#45;&gt;node3 -->
<g id="edge14" class="edge">
<title>node4&#45;&gt;node3</title>
<path fill="none" stroke="BLACK" d="M2056.28,-245.18C2306.48,-237.91 2702.46,-223.88 3044.5,-200.5 3083.81,-197.81 3359.42,-176.88 3397.5,-166.75 3403.79,-165.08 3410.21,-162.92 3416.52,-160.5"/>
<polygon fill="BLACK" stroke="BLACK" points="3417.63,-163.82 3425.56,-156.8 3414.98,-157.34 3417.63,-163.82"/>
<text text-anchor="start" x="3239.5" y="-188.2" font-family="Times New Roman,serif" font-size="14.00"> </text>
<text text-anchor="start" x="3243.25" y="-188.2" font-family="Times New Roman,serif" font-size="10.00" fill="#336633">rdf:type</text>
<text text-anchor="start" x="3274.75" y="-188.2" font-family="Times New Roman,serif" font-size="14.00"> </text>
</g>
<!-- node8 -->
<g id="node8" class="node">
<title>node8</title>
<polygon fill="grey" stroke="none" points="9,-140.75 9,-161.75 936,-161.75 936,-140.75 9,-140.75"/>
<text text-anchor="start" x="10.88" y="-147.45" font-family="DejaVu Sans" font-weight="bold" font-size="14.00">Study Of The Survival Without Degradation To The Quality Of Life During Chemotherapy For Metastatic Breast Cancer In Women</text>
<g id="a_node8_9"><a xlink:href="https://clinicaltrials.gov/ct2/show/NCT00010075" xlink:title="&lt;TABLE&gt;">
<polygon fill="#eeeeee" stroke="none" points="9,-124.75 9,-140.75 936,-140.75 936,-124.75 9,-124.75"/>
<text text-anchor="start" x="369.38" y="-129.25" font-family="DejaVu Sans" font-size="10.00" fill="#6666ff">https://clinicaltrials.gov/ct2/show/NCT00010075</text>
</a>
</g>
<text text-anchor="start" x="11" y="-109.45" font-family="DejaVu Sans" font-size="14.00">schema:MedicalCondition</text>
<text text-anchor="start" x="504" y="-109.45" font-family="DejaVu Sans" font-size="14.00">&quot;Breast Cancer&quot;</text>
<polygon fill="none" stroke="#666666" points="8,-102.75 8,-162.75 937,-162.75 937,-102.75 8,-102.75"/>
</g>
<!-- node4&#45;&gt;node8 -->
<g id="edge4" class="edge">
<title>node4&#45;&gt;node8</title>
<path fill="none" stroke="BLACK" d="M1556.76,-229.46C1360.1,-212.1 1082.57,-187.6 857.53,-167.74"/>
<polygon fill="BLACK" stroke="BLACK" points="857.95,-164.26 847.68,-166.87 857.34,-171.23 857.95,-164.26"/>
<text text-anchor="start" x="1219.5" y="-188.2" font-family="Times New Roman,serif" font-size="14.00"> </text>
<text text-anchor="start" x="1223.25" y="-188.2" font-family="Times New Roman,serif" font-size="10.00" fill="#336633">schema:study</text>
<text text-anchor="start" x="1278.75" y="-188.2" font-family="Times New Roman,serif" font-size="14.00"> </text>
</g>
<!-- node11 -->
<g id="node11" class="node">
<title>node11</title>
<polygon fill="grey" stroke="none" points="2019,-130.25 2019,-151.25 2250,-151.25 2250,-130.25 2019,-130.25"/>
<text text-anchor="start" x="2102.25" y="-136.95" font-family="DejaVu Sans" font-weight="bold" font-size="14.00">D005472</text>
<g id="a_node11_10"><a xlink:href="https://www.ncbi.nlm.nih.gov/mesh/?term=D005472" xlink:title="&lt;TABLE&gt;">
<polygon fill="#eeeeee" stroke="none" points="2019,-114.25 2019,-130.25 2250,-130.25 2250,-114.25 2019,-114.25"/>
<text text-anchor="start" x="2020.88" y="-118.75" font-family="DejaVu Sans" font-size="10.00" fill="#6666ff">https://www.ncbi.nlm.nih.gov/mesh/?term=D005472</text>
</a>
</g>
<polygon fill="none" stroke="#666666" points="2018,-113.25 2018,-152.25 2251,-152.25 2251,-113.25 2018,-113.25"/>
</g>
<!-- node4&#45;&gt;node11 -->
<g id="edge8" class="edge">
<title>node4&#45;&gt;node11</title>
<path fill="none" stroke="BLACK" d="M1898.3,-218.54C1949.84,-200.04 2013.26,-177.27 2061.4,-159.99"/>
<polygon fill="BLACK" stroke="BLACK" points="2062.4,-163.35 2070.63,-156.68 2060.03,-156.76 2062.4,-163.35"/>
<text text-anchor="start" x="1989.5" y="-188.2" font-family="Times New Roman,serif" font-size="14.00"> </text>
<text text-anchor="start" x="1993.25" y="-188.2" font-family="Times New Roman,serif" font-size="10.00" fill="#336633">schema:url</text>
<text text-anchor="start" x="2036" y="-188.2" font-family="Times New Roman,serif" font-size="14.00"> </text>
</g>
<!-- node8&#45;&gt;node1 -->
<g id="edge13" class="edge">
<title>node8&#45;&gt;node1</title>
<path fill="none" stroke="BLACK" d="M944.7,-99.32C947.64,-99.13 950.58,-98.94 953.5,-98.75 1366.32,-71.83 1859.13,-42.13 2061.15,-30.06"/>
<polygon fill="BLACK" stroke="BLACK" points="2061.29,-33.55 2071.07,-29.46 2060.88,-26.57 2061.29,-33.55"/>
<text text-anchor="start" x="1481.5" y="-68.45" font-family="Times New Roman,serif" font-size="14.00"> </text>
<text text-anchor="start" x="1485.25" y="-68.45" font-family="Times New Roman,serif" font-size="10.00" fill="#336633">rdf:type</text>
<text text-anchor="start" x="1516.75" y="-68.45" font-family="Times New Roman,serif" font-size="14.00"> </text>
</g>
<!-- node9 -->
<g id="node9" class="node">
<title>node9</title>
<polygon fill="grey" stroke="none" points="4187,-260.5 4187,-281.5 4676,-281.5 4676,-260.5 4187,-260.5"/>
<text text-anchor="start" x="4386.5" y="-267.2" font-family="DejaVu Sans" font-weight="bold" font-size="14.00">capecitabine</text>
<g id="a_node9_11"><a xlink:href="https://drugcentral.org/drugcard/480" xlink:title="&lt;TABLE&gt;">
<polygon fill="#eeeeee" stroke="none" points="4187,-244.5 4187,-260.5 4676,-260.5 4676,-244.5 4187,-244.5"/>
<text text-anchor="start" x="4351.62" y="-249" font-family="DejaVu Sans" font-size="10.00" fill="#6666ff">https://drugcentral.org/drugcard/480</text>
</a>
</g>
<text text-anchor="start" x="4188.62" y="-229.2" font-family="DejaVu Sans" font-size="14.00">schema:url</text>
<text text-anchor="start" x="4261.75" y="-229.2" font-family="DejaVu Sans" font-size="14.00">&quot;https://www.ebi.ac.uk/chembl/compound/inspect/CHEMBL1773&quot;</text>
<polygon fill="none" stroke="#666666" points="4186,-222.5 4186,-282.5 4677,-282.5 4677,-222.5 4186,-222.5"/>
</g>
<!-- node9&#45;&gt;node3 -->
<g id="edge11" class="edge">
<title>node9&#45;&gt;node3</title>
<path fill="none" stroke="BLACK" d="M4323.28,-218.57C4275.67,-205.56 4218.78,-192 4166.5,-184.75 4029.53,-165.75 3679.32,-197.49 3544.5,-166.75 3537.66,-165.19 3530.68,-162.99 3523.86,-160.45"/>
<polygon fill="BLACK" stroke="BLACK" points="3525.34,-157.27 3514.75,-156.79 3522.73,-163.76 3525.34,-157.27"/>
<text text-anchor="start" x="4247.5" y="-188.2" font-family="Times New Roman,serif" font-size="14.00"> </text>
<text text-anchor="start" x="4251.25" y="-188.2" font-family="Times New Roman,serif" font-size="10.00" fill="#336633">rdf:type</text>
<text text-anchor="start" x="4282.75" y="-188.2" font-family="Times New Roman,serif" font-size="14.00"> </text>
</g>
<!-- node10 -->
<g id="node10" class="node">
<title>node10</title>
<polygon fill="grey" stroke="none" points="5070,-130.25 5070,-151.25 5317,-151.25 5317,-130.25 5070,-130.25"/>
<text text-anchor="start" x="5147.75" y="-136.95" font-family="DejaVu Sans" font-weight="bold" font-size="14.00">D000069287</text>
<g id="a_node10_12"><a xlink:href="https://www.ncbi.nlm.nih.gov/mesh/?term=D000069287" xlink:title="&lt;TABLE&gt;">
<polygon fill="#eeeeee" stroke="none" points="5070,-114.25 5070,-130.25 5317,-130.25 5317,-114.25 5070,-114.25"/>
<text text-anchor="start" x="5072" y="-118.75" font-family="DejaVu Sans" font-size="10.00" fill="#6666ff">https://www.ncbi.nlm.nih.gov/mesh/?term=D000069287</text>
</a>
</g>
<polygon fill="none" stroke="#666666" points="5069,-113.25 5069,-152.25 5318,-152.25 5318,-113.25 5069,-113.25"/>
</g>
<!-- node9&#45;&gt;node10 -->
<g id="edge6" class="edge">
<title>node9&#45;&gt;node10</title>
<path fill="none" stroke="BLACK" d="M4684.65,-222.44C4797.62,-208.06 4932.13,-189 5052.5,-166.75 5065.34,-164.38 5078.78,-161.61 5092.04,-158.7"/>
<polygon fill="BLACK" stroke="BLACK" points="5092.65,-162.15 5101.65,-156.56 5091.13,-155.32 5092.65,-162.15"/>
<text text-anchor="start" x="4933.5" y="-188.2" font-family="Times New Roman,serif" font-size="14.00"> </text>
<text text-anchor="start" x="4937.25" y="-188.2" font-family="Times New Roman,serif" font-size="10.00" fill="#336633">schema:url</text>
<text text-anchor="start" x="4980" y="-188.2" font-family="Times New Roman,serif" font-size="14.00"> </text>
</g>
<!-- node9&#45;&gt;node7 -->
<g id="edge12" class="edge">
<title>node9&#45;&gt;node7</title>
<path fill="none" stroke="BLACK" d="M4431.5,-218.7C4431.5,-205.94 4431.5,-191.13 4431.5,-177.49"/>
<polygon fill="BLACK" stroke="BLACK" points="4435,-177.89 4431.5,-167.89 4428,-177.89 4435,-177.89"/>
<text text-anchor="start" x="4431.5" y="-188.2" font-family="Times New Roman,serif" font-size="14.00"> </text>
<text text-anchor="start" x="4435.25" y="-188.2" font-family="Times New Roman,serif" font-size="10.00" fill="#336633">schema:study</text>
<text text-anchor="start" x="4490.75" y="-188.2" font-family="Times New Roman,serif" font-size="14.00"> </text>
</g>
<!-- node7&#45;&gt;node1 -->
<g id="edge10" class="edge">
<title>node7&#45;&gt;node1</title>
<path fill="none" stroke="BLACK" d="M3820.41,-99.19C3817.43,-99.04 3814.46,-98.9 3811.5,-98.75 3215.94,-69.56 2499.73,-39.01 2247.7,-28.4"/>
<polygon fill="BLACK" stroke="BLACK" points="2248.06,-24.91 2237.92,-27.99 2247.76,-31.91 2248.06,-24.91"/>
<text text-anchor="start" x="3401.5" y="-68.45" font-family="Times New Roman,serif" font-size="14.00"> </text>
<text text-anchor="start" x="3405.25" y="-68.45" font-family="Times New Roman,serif" font-size="10.00" fill="#336633">rdf:type</text>
<text text-anchor="start" x="3436.75" y="-68.45" font-family="Times New Roman,serif" font-size="14.00"> </text>
</g>
</g>
</svg>
